<svg width="1440" height="320" viewBox="0 0 1440 320" fill="none" xmlns="http://www.w3.org/2000/svg">
<path d="M1 0.000117302C1 0.000117302 99 17.7001 147 12.0001C195 6.30012 193 43.0001 289 80.0001C385 117 481 203 577 202.7C673 203 769 117 865 101.3C961 85.0001 1057 139 1153 154.7C1249 171 1234 49.5001 1282 38.5001C1330 27.5001 1439.73 0 1439.73 0L1393 0.000117302C1345 0.000117302 1249 0.000117302 1153 0.000117302C1057 0.000117302 961 0.000117302 865 0.000117302C769 0.000117302 673 0.000117302 577 0.000117302C481 0.000117302 385 0.000117302 289 0.000117302C193 0.000117302 97 0.000117302 49 0.000117302H1Z" fill="#0099FF"/>
</svg>
