<svg width="20" height="20" viewBox="0 0 20 20" fill="none" xmlns="http://www.w3.org/2000/svg">
<g clip-path="url(#clip0_274_16)">
<path d="M16.219 1.94412C16.872 2.45612 17.322 3.28312 17.506 4.14912C17.5283 4.15618 17.55 4.16487 17.571 4.17512L19.616 5.12112C19.7303 5.17361 19.8272 5.25772 19.8952 5.3635C19.9633 5.46929 19.9996 5.59234 20 5.71812V18.0851C19.9993 18.1879 19.9747 18.289 19.9284 18.3807C19.882 18.4723 19.815 18.552 19.7326 18.6134C19.6503 18.6749 19.5548 18.7164 19.4537 18.7347C19.3526 18.753 19.2487 18.7477 19.15 18.7191L13.481 17.1191L6.741 18.9771C6.61939 19.0105 6.49086 19.0091 6.37 18.9731L0.474 17.2181C0.337721 17.1781 0.21799 17.0952 0.132595 16.9817C0.047201 16.8682 0.00069966 16.7302 0 16.5881L0 3.99912C0 3.55912 0.428 3.24312 0.855 3.36712L6.557 5.02812L9.455 4.14112C9.49488 4.12935 9.5357 4.12098 9.577 4.11612C9.689 3.46012 10.002 2.83012 10.527 2.21612C11.15 1.48612 12.243 1.05812 13.308 1.00712C14.413 0.954123 15.257 1.19012 16.218 1.94312M1.333 4.88212V16.0971L6.203 17.5461V6.29912L1.333 4.88212ZM9.542 5.49612L7.536 6.10912V17.3881L12.601 15.9941V12.6991C12.601 12.3351 12.9 12.0401 13.268 12.0401C13.636 12.0401 13.934 12.3351 13.934 12.7001V15.8771L18.667 17.2121V6.13712L17.547 5.61712C17.528 5.72712 17.504 5.83512 17.474 5.94012C17.2565 6.70688 16.8917 7.42391 16.4 8.05112L13.923 11.1441C13.8578 11.2254 13.7745 11.2904 13.6797 11.3339C13.585 11.3774 13.4814 11.3981 13.3772 11.3946C13.273 11.391 13.1711 11.3631 13.0796 11.3132C12.9881 11.2633 12.9095 11.1927 12.85 11.1071L10.535 7.75412C10.153 7.22012 9.885 6.74412 9.734 6.31812C9.63922 6.05224 9.57481 5.77648 9.542 5.49612ZM13.372 2.32512C12.646 2.36012 11.9 2.65212 11.545 3.06712C11.118 3.56712 10.908 4.03512 10.866 4.50912C10.816 5.08012 10.85 5.48312 10.992 5.88212C11.097 6.17712 11.306 6.55112 11.629 7.00212L13.44 9.62412L15.35 7.23912C15.7353 6.74668 16.021 6.18385 16.191 5.58212C16.431 4.74212 16.069 3.50812 15.391 2.97812C14.696 2.43312 14.171 2.28612 13.373 2.32512M13.511 3.02212C14.615 3.02212 15.511 3.90712 15.511 4.99912C15.5096 5.26028 15.4567 5.51859 15.3554 5.7593C15.2541 6.00001 15.1063 6.2184 14.9206 6.40199C14.7349 6.58559 14.5148 6.73079 14.2729 6.8293C14.0311 6.92781 13.7722 6.9777 13.511 6.97612C12.407 6.97612 11.511 6.09112 11.511 4.99912C11.511 3.90712 12.407 3.02212 13.511 3.02212ZM13.511 4.34012C13.4239 4.3396 13.3376 4.35622 13.257 4.38906C13.1763 4.42189 13.1029 4.47029 13.041 4.53148C12.9791 4.59267 12.9298 4.66547 12.896 4.74571C12.8622 4.82595 12.8445 4.91206 12.844 4.99912C12.844 5.36312 13.143 5.65812 13.511 5.65812C13.5981 5.65852 13.6844 5.64176 13.7649 5.60881C13.8455 5.57585 13.9188 5.52735 13.9807 5.46606C14.0425 5.40477 14.0917 5.3319 14.1254 5.25161C14.1591 5.17133 14.1766 5.08519 14.177 4.99812C14.1757 4.82263 14.1048 4.65482 13.98 4.53148C13.8551 4.40814 13.6865 4.33932 13.511 4.34012Z" fill="#0094FF"/>
</g>
<defs>
<clipPath id="clip0_274_16">
<rect width="20" height="20" fill="white"/>
</clipPath>
</defs>
</svg>
